<mxfile host="app.diagrams.net" modified="2022-08-10T02:53:13.461Z" agent="5.0 (Windows NT 10.0; Win64; x64) AppleWebKit/537.36 (KHTML, like Gecko) Chrome/104.0.0.0 Safari/537.36" etag="w01m78lZZ_fdwp1OTnMs" version="20.2.3" type="github">
  <diagram name="Page-1" id="c37626ed-c26b-45fb-9056-f9ebc6bb27b6">
    <mxGraphModel dx="1278" dy="571" grid="1" gridSize="10" guides="1" tooltips="1" connect="1" arrows="1" fold="1" page="1" pageScale="1" pageWidth="1100" pageHeight="850" background="none" math="0" shadow="0">
      <root>
        <mxCell id="0" />
        <mxCell id="1" parent="0" />
        <mxCell id="h9Irp6k27zSK09K-pHLx-3" value="网关和氢课应用服务" style="shape=mxgraph.cisco.computers_and_peripherals.ibm_mainframe;sketch=0;html=1;pointerEvents=1;dashed=0;fillColor=#036897;strokeColor=#ffffff;strokeWidth=2;verticalLabelPosition=bottom;verticalAlign=top;align=center;outlineConnect=0;" vertex="1" parent="1">
          <mxGeometry x="456" y="160" width="50" height="70" as="geometry" />
        </mxCell>
        <mxCell id="h9Irp6k27zSK09K-pHLx-4" value="数据库和高速缓存服务" style="shape=mxgraph.cisco.computers_and_peripherals.ibm_mainframe;sketch=0;html=1;pointerEvents=1;dashed=0;fillColor=#036897;strokeColor=#ffffff;strokeWidth=2;verticalLabelPosition=bottom;verticalAlign=top;align=center;outlineConnect=0;" vertex="1" parent="1">
          <mxGeometry x="190" y="380" width="50" height="70" as="geometry" />
        </mxCell>
        <mxCell id="h9Irp6k27zSK09K-pHLx-5" value="业务id生成服务" style="shape=mxgraph.cisco.computers_and_peripherals.ibm_mainframe;sketch=0;html=1;pointerEvents=1;dashed=0;fillColor=#036897;strokeColor=#ffffff;strokeWidth=2;verticalLabelPosition=bottom;verticalAlign=top;align=center;outlineConnect=0;" vertex="1" parent="1">
          <mxGeometry x="456" y="380" width="50" height="70" as="geometry" />
        </mxCell>
        <mxCell id="h9Irp6k27zSK09K-pHLx-6" value="rabbitmq和elasticsearch服务" style="shape=mxgraph.cisco.computers_and_peripherals.ibm_mainframe;sketch=0;html=1;pointerEvents=1;dashed=0;fillColor=#036897;strokeColor=#ffffff;strokeWidth=2;verticalLabelPosition=bottom;verticalAlign=top;align=center;outlineConnect=0;" vertex="1" parent="1">
          <mxGeometry x="710" y="380" width="50" height="70" as="geometry" />
        </mxCell>
        <mxCell id="h9Irp6k27zSK09K-pHLx-7" value="公众号服务" style="shape=mxgraph.cisco.computers_and_peripherals.ibm_mainframe;sketch=0;html=1;pointerEvents=1;dashed=0;fillColor=#036897;strokeColor=#ffffff;strokeWidth=2;verticalLabelPosition=bottom;verticalAlign=top;align=center;outlineConnect=0;" vertex="1" parent="1">
          <mxGeometry x="270" y="160" width="50" height="70" as="geometry" />
        </mxCell>
        <mxCell id="h9Irp6k27zSK09K-pHLx-8" value="氢课备用服务" style="shape=mxgraph.cisco.computers_and_peripherals.ibm_mainframe;sketch=0;html=1;pointerEvents=1;dashed=0;fillColor=#036897;strokeColor=#ffffff;strokeWidth=2;verticalLabelPosition=bottom;verticalAlign=top;align=center;outlineConnect=0;" vertex="1" parent="1">
          <mxGeometry x="640" y="160" width="50" height="70" as="geometry" />
        </mxCell>
        <mxCell id="h9Irp6k27zSK09K-pHLx-9" value="" style="shape=mxgraph.cisco.people.standing_man;sketch=0;html=1;pointerEvents=1;dashed=0;fillColor=#036897;strokeColor=#ffffff;strokeWidth=2;verticalLabelPosition=bottom;verticalAlign=top;align=center;outlineConnect=0;" vertex="1" parent="1">
          <mxGeometry x="470" y="20" width="22" height="62" as="geometry" />
        </mxCell>
        <mxCell id="h9Irp6k27zSK09K-pHLx-10" value="" style="endArrow=none;html=1;rounded=0;" edge="1" parent="1" source="h9Irp6k27zSK09K-pHLx-7" target="h9Irp6k27zSK09K-pHLx-9">
          <mxGeometry width="50" height="50" relative="1" as="geometry">
            <mxPoint x="520" y="320" as="sourcePoint" />
            <mxPoint x="580" y="270" as="targetPoint" />
            <Array as="points">
              <mxPoint x="370" y="140" />
            </Array>
          </mxGeometry>
        </mxCell>
        <mxCell id="h9Irp6k27zSK09K-pHLx-14" value="" style="endArrow=none;html=1;rounded=0;" edge="1" parent="1" source="h9Irp6k27zSK09K-pHLx-8" target="h9Irp6k27zSK09K-pHLx-9">
          <mxGeometry width="50" height="50" relative="1" as="geometry">
            <mxPoint x="530" y="220" as="sourcePoint" />
            <mxPoint x="580" y="170" as="targetPoint" />
          </mxGeometry>
        </mxCell>
        <mxCell id="h9Irp6k27zSK09K-pHLx-15" value="" style="endArrow=none;html=1;rounded=0;" edge="1" parent="1" source="h9Irp6k27zSK09K-pHLx-3" target="h9Irp6k27zSK09K-pHLx-9">
          <mxGeometry width="50" height="50" relative="1" as="geometry">
            <mxPoint x="530" y="220" as="sourcePoint" />
            <mxPoint x="580" y="170" as="targetPoint" />
          </mxGeometry>
        </mxCell>
        <mxCell id="h9Irp6k27zSK09K-pHLx-16" value="" style="endArrow=none;html=1;rounded=0;" edge="1" parent="1" source="h9Irp6k27zSK09K-pHLx-3" target="h9Irp6k27zSK09K-pHLx-8">
          <mxGeometry width="50" height="50" relative="1" as="geometry">
            <mxPoint x="530" y="220" as="sourcePoint" />
            <mxPoint x="580" y="170" as="targetPoint" />
          </mxGeometry>
        </mxCell>
        <mxCell id="h9Irp6k27zSK09K-pHLx-17" value="" style="endArrow=none;html=1;rounded=0;" edge="1" parent="1" source="h9Irp6k27zSK09K-pHLx-7" target="h9Irp6k27zSK09K-pHLx-3">
          <mxGeometry width="50" height="50" relative="1" as="geometry">
            <mxPoint x="530" y="220" as="sourcePoint" />
            <mxPoint x="580" y="170" as="targetPoint" />
          </mxGeometry>
        </mxCell>
        <mxCell id="h9Irp6k27zSK09K-pHLx-18" value="" style="endArrow=none;html=1;rounded=0;entryX=0.5;entryY=0.96;entryDx=0;entryDy=0;entryPerimeter=0;" edge="1" parent="1" source="h9Irp6k27zSK09K-pHLx-4" target="h9Irp6k27zSK09K-pHLx-7">
          <mxGeometry width="50" height="50" relative="1" as="geometry">
            <mxPoint x="530" y="420" as="sourcePoint" />
            <mxPoint x="580" y="370" as="targetPoint" />
          </mxGeometry>
        </mxCell>
        <mxCell id="h9Irp6k27zSK09K-pHLx-19" value="" style="endArrow=none;html=1;rounded=0;entryX=0.5;entryY=0.96;entryDx=0;entryDy=0;entryPerimeter=0;" edge="1" parent="1" source="h9Irp6k27zSK09K-pHLx-4" target="h9Irp6k27zSK09K-pHLx-3">
          <mxGeometry width="50" height="50" relative="1" as="geometry">
            <mxPoint x="530" y="420" as="sourcePoint" />
            <mxPoint x="580" y="370" as="targetPoint" />
          </mxGeometry>
        </mxCell>
        <mxCell id="h9Irp6k27zSK09K-pHLx-20" value="" style="endArrow=none;html=1;rounded=0;entryX=0.5;entryY=0.96;entryDx=0;entryDy=0;entryPerimeter=0;" edge="1" parent="1" source="h9Irp6k27zSK09K-pHLx-4" target="h9Irp6k27zSK09K-pHLx-8">
          <mxGeometry width="50" height="50" relative="1" as="geometry">
            <mxPoint x="530" y="420" as="sourcePoint" />
            <mxPoint x="580" y="370" as="targetPoint" />
          </mxGeometry>
        </mxCell>
        <mxCell id="h9Irp6k27zSK09K-pHLx-21" value="" style="endArrow=none;html=1;rounded=0;" edge="1" parent="1" source="h9Irp6k27zSK09K-pHLx-5" target="h9Irp6k27zSK09K-pHLx-7">
          <mxGeometry width="50" height="50" relative="1" as="geometry">
            <mxPoint x="530" y="420" as="sourcePoint" />
            <mxPoint x="580" y="370" as="targetPoint" />
          </mxGeometry>
        </mxCell>
        <mxCell id="h9Irp6k27zSK09K-pHLx-22" value="" style="endArrow=none;html=1;rounded=0;entryX=0.5;entryY=0.96;entryDx=0;entryDy=0;entryPerimeter=0;" edge="1" parent="1" source="h9Irp6k27zSK09K-pHLx-5" target="h9Irp6k27zSK09K-pHLx-3">
          <mxGeometry width="50" height="50" relative="1" as="geometry">
            <mxPoint x="530" y="420" as="sourcePoint" />
            <mxPoint x="580" y="370" as="targetPoint" />
          </mxGeometry>
        </mxCell>
        <mxCell id="h9Irp6k27zSK09K-pHLx-23" value="" style="endArrow=none;html=1;rounded=0;entryX=0.5;entryY=0.96;entryDx=0;entryDy=0;entryPerimeter=0;" edge="1" parent="1" source="h9Irp6k27zSK09K-pHLx-5" target="h9Irp6k27zSK09K-pHLx-8">
          <mxGeometry width="50" height="50" relative="1" as="geometry">
            <mxPoint x="530" y="420" as="sourcePoint" />
            <mxPoint x="580" y="370" as="targetPoint" />
          </mxGeometry>
        </mxCell>
        <mxCell id="h9Irp6k27zSK09K-pHLx-24" value="" style="endArrow=none;html=1;rounded=0;" edge="1" parent="1" source="h9Irp6k27zSK09K-pHLx-6" target="h9Irp6k27zSK09K-pHLx-8">
          <mxGeometry width="50" height="50" relative="1" as="geometry">
            <mxPoint x="530" y="420" as="sourcePoint" />
            <mxPoint x="580" y="370" as="targetPoint" />
          </mxGeometry>
        </mxCell>
        <mxCell id="h9Irp6k27zSK09K-pHLx-25" value="" style="endArrow=none;html=1;rounded=0;exitX=0.17;exitY=0.1;exitDx=0;exitDy=0;exitPerimeter=0;entryX=0.5;entryY=0.96;entryDx=0;entryDy=0;entryPerimeter=0;" edge="1" parent="1" source="h9Irp6k27zSK09K-pHLx-6" target="h9Irp6k27zSK09K-pHLx-3">
          <mxGeometry width="50" height="50" relative="1" as="geometry">
            <mxPoint x="530" y="420" as="sourcePoint" />
            <mxPoint x="580" y="370" as="targetPoint" />
          </mxGeometry>
        </mxCell>
        <mxCell id="h9Irp6k27zSK09K-pHLx-26" value="" style="endArrow=none;html=1;rounded=0;entryX=0;entryY=0.5;entryDx=0;entryDy=0;entryPerimeter=0;exitX=0.9;exitY=0.86;exitDx=0;exitDy=0;exitPerimeter=0;" edge="1" parent="1" source="h9Irp6k27zSK09K-pHLx-7" target="h9Irp6k27zSK09K-pHLx-6">
          <mxGeometry width="50" height="50" relative="1" as="geometry">
            <mxPoint x="530" y="420" as="sourcePoint" />
            <mxPoint x="580" y="370" as="targetPoint" />
          </mxGeometry>
        </mxCell>
      </root>
    </mxGraphModel>
  </diagram>
</mxfile>
